<?xml version="1.0" encoding="UTF-8" standalone="no"?>
<!DOCTYPE svg PUBLIC "-//W3C//DTD SVG 1.1//EN"
 "http://www.w3.org/Graphics/SVG/1.1/DTD/svg11.dtd">
<!-- Generated by graphviz version 6.0.2 (20221011.1828)
 -->
<!-- Title: g Pages: 1 -->
<svg width="1002pt" height="462pt"
 viewBox="0.00 0.00 1002.50 462.09" xmlns="http://www.w3.org/2000/svg" xmlns:xlink="http://www.w3.org/1999/xlink">
<g id="graph0" class="graph" transform="scale(1 1) rotate(0) translate(4 458.09)">
<title>g</title>
<polygon fill="white" stroke="none" points="-4,4 -4,-458.09 998.5,-458.09 998.5,4 -4,4"/>
<!-- n0 -->
<g id="node1" class="node">
<title>n0</title>
<polygon fill="none" stroke="black" points="293,-454.09 244,-454.09 244,-405.09 293,-405.09 293,-454.09"/>
<text text-anchor="middle" x="268.5" y="-425.89" font-family="Times,serif" font-size="14.00">Block</text>
</g>
<!-- n2 -->
<g id="node3" class="node">
<title>n2</title>
<polygon fill="none" stroke="black" points="74.5,-362.09 47.5,-344.09 74.5,-326.09 101.5,-344.09 74.5,-362.09"/>
<text text-anchor="middle" x="74.5" y="-340.39" font-family="Times,serif" font-size="14.00">=</text>
</g>
<!-- n0&#45;&#45;n2 -->
<g id="edge3" class="edge">
<title>n0&#45;&#45;n2</title>
<path fill="none" stroke="black" d="M243.93,-418.01C203.45,-400.59 123.88,-366.34 90.18,-351.84"/>
</g>
<!-- n5 -->
<g id="node6" class="node">
<title>n5</title>
<polygon fill="none" stroke="black" points="171.5,-362.09 144.5,-344.09 171.5,-326.09 198.5,-344.09 171.5,-362.09"/>
<text text-anchor="middle" x="171.5" y="-340.39" font-family="Times,serif" font-size="14.00">=</text>
</g>
<!-- n0&#45;&#45;n5 -->
<g id="edge6" class="edge">
<title>n0&#45;&#45;n5</title>
<path fill="none" stroke="black" d="M243.77,-407.3C224.12,-390.39 197.57,-367.53 182.73,-354.75"/>
</g>
<!-- n7 -->
<g id="node8" class="node">
<title>n7</title>
<polygon fill="none" stroke="black" points="260,-365.59 217,-365.59 217,-322.59 260,-322.59 260,-365.59"/>
<text text-anchor="middle" x="238.5" y="-340.39" font-family="Times,serif" font-size="14.00">Print</text>
</g>
<!-- n0&#45;&#45;n7 -->
<g id="edge8" class="edge">
<title>n0&#45;&#45;n7</title>
<path fill="none" stroke="black" d="M259.98,-404.88C255.55,-392.54 250.18,-377.59 245.91,-365.73"/>
</g>
<!-- n9 -->
<g id="node10" class="node">
<title>n9</title>
<polygon fill="none" stroke="black" points="321,-365.59 278,-365.59 278,-322.59 321,-322.59 321,-365.59"/>
<text text-anchor="middle" x="299.5" y="-340.39" font-family="Times,serif" font-size="14.00">Print</text>
</g>
<!-- n0&#45;&#45;n9 -->
<g id="edge10" class="edge">
<title>n0&#45;&#45;n9</title>
<path fill="none" stroke="black" d="M277.3,-404.88C281.88,-392.54 287.43,-377.59 291.84,-365.73"/>
</g>
<!-- n12 -->
<g id="node13" class="node">
<title>n12</title>
<polygon fill="none" stroke="black" points="366.5,-362.09 339.5,-344.09 366.5,-326.09 393.5,-344.09 366.5,-362.09"/>
<text text-anchor="middle" x="366.5" y="-340.39" font-family="Times,serif" font-size="14.00">=</text>
</g>
<!-- n0&#45;&#45;n12 -->
<g id="edge13" class="edge">
<title>n0&#45;&#45;n12</title>
<path fill="none" stroke="black" d="M293.23,-407.52C313.07,-390.61 340.03,-367.64 355.09,-354.81"/>
</g>
<!-- n14 -->
<g id="node15" class="node">
<title>n14</title>
<polygon fill="none" stroke="black" points="495.5,-369.09 445.5,-369.09 445.5,-319.09 495.5,-319.09 495.5,-369.09"/>
<text text-anchor="middle" x="470.5" y="-340.39" font-family="Times,serif" font-size="14.00">While</text>
</g>
<!-- n0&#45;&#45;n14 -->
<g id="edge36" class="edge">
<title>n0&#45;&#45;n14</title>
<path fill="none" stroke="black" d="M293.27,-418.35C331.93,-402.37 406.23,-371.66 445.21,-355.54"/>
</g>
<!-- n1 -->
<g id="node2" class="node">
<title>n1</title>
<ellipse fill="none" stroke="black" cx="19.5" cy="-258.59" rx="19.5" ry="19.5"/>
<text text-anchor="middle" x="19.5" y="-254.89" font-family="Times,serif" font-size="14.00">n1</text>
</g>
<!-- n2&#45;&#45;n1 -->
<g id="edge1" class="edge">
<title>n2&#45;&#45;n1</title>
<path fill="none" stroke="black" d="M66.62,-331.13C56.93,-316.42 40.48,-291.44 29.8,-275.23"/>
</g>
<!-- n3 -->
<g id="node4" class="node">
<title>n3</title>
<ellipse fill="none" stroke="black" cx="74.5" cy="-258.59" rx="18" ry="18"/>
<text text-anchor="middle" x="74.5" y="-254.89" font-family="Times,serif" font-size="14.00">1</text>
</g>
<!-- n2&#45;&#45;n3 -->
<g id="edge2" class="edge">
<title>n2&#45;&#45;n3</title>
<path fill="none" stroke="black" d="M74.5,-325.79C74.5,-311.46 74.5,-291.19 74.5,-276.87"/>
</g>
<!-- n4 -->
<g id="node5" class="node">
<title>n4</title>
<ellipse fill="none" stroke="black" cx="129.5" cy="-258.59" rx="19.5" ry="19.5"/>
<text text-anchor="middle" x="129.5" y="-254.89" font-family="Times,serif" font-size="14.00">n2</text>
</g>
<!-- n5&#45;&#45;n4 -->
<g id="edge4" class="edge">
<title>n5&#45;&#45;n4</title>
<path fill="none" stroke="black" d="M164.94,-330.04C157.65,-315.55 145.86,-292.11 137.9,-276.29"/>
</g>
<!-- n6 -->
<g id="node7" class="node">
<title>n6</title>
<ellipse fill="none" stroke="black" cx="184.5" cy="-258.59" rx="18" ry="18"/>
<text text-anchor="middle" x="184.5" y="-254.89" font-family="Times,serif" font-size="14.00">1</text>
</g>
<!-- n5&#45;&#45;n6 -->
<g id="edge5" class="edge">
<title>n5&#45;&#45;n6</title>
<path fill="none" stroke="black" d="M173.94,-327.38C176.19,-312.93 179.52,-291.53 181.84,-276.66"/>
</g>
<!-- n8 -->
<g id="node9" class="node">
<title>n8</title>
<ellipse fill="none" stroke="black" cx="239.5" cy="-258.59" rx="19.5" ry="19.5"/>
<text text-anchor="middle" x="239.5" y="-254.89" font-family="Times,serif" font-size="14.00">n1</text>
</g>
<!-- n7&#45;&#45;n8 -->
<g id="edge7" class="edge">
<title>n7&#45;&#45;n8</title>
<path fill="none" stroke="black" d="M238.75,-322.45C238.91,-308.93 239.12,-291.39 239.27,-278.28"/>
</g>
<!-- n10 -->
<g id="node11" class="node">
<title>n10</title>
<ellipse fill="none" stroke="black" cx="298.5" cy="-258.59" rx="19.5" ry="19.5"/>
<text text-anchor="middle" x="298.5" y="-254.89" font-family="Times,serif" font-size="14.00">n2</text>
</g>
<!-- n9&#45;&#45;n10 -->
<g id="edge9" class="edge">
<title>n9&#45;&#45;n10</title>
<path fill="none" stroke="black" d="M299.25,-322.45C299.09,-308.93 298.88,-291.39 298.72,-278.28"/>
</g>
<!-- n11 -->
<g id="node12" class="node">
<title>n11</title>
<ellipse fill="none" stroke="black" cx="353.5" cy="-258.59" rx="18" ry="18"/>
<text text-anchor="middle" x="353.5" y="-254.89" font-family="Times,serif" font-size="14.00">i</text>
</g>
<!-- n12&#45;&#45;n11 -->
<g id="edge11" class="edge">
<title>n12&#45;&#45;n11</title>
<path fill="none" stroke="black" d="M364.05,-327.38C361.8,-312.93 358.47,-291.53 356.16,-276.66"/>
</g>
<!-- n13 -->
<g id="node14" class="node">
<title>n13</title>
<ellipse fill="none" stroke="black" cx="407.5" cy="-258.59" rx="18" ry="18"/>
<text text-anchor="middle" x="407.5" y="-254.89" font-family="Times,serif" font-size="14.00">0</text>
</g>
<!-- n12&#45;&#45;n13 -->
<g id="edge12" class="edge">
<title>n12&#45;&#45;n13</title>
<path fill="none" stroke="black" d="M372.9,-330.04C380.2,-315.18 392.12,-290.92 399.88,-275.1"/>
</g>
<!-- n16 -->
<g id="node17" class="node">
<title>n16</title>
<polygon fill="none" stroke="black" points="470.5,-276.59 443.5,-258.59 470.5,-240.59 497.5,-258.59 470.5,-276.59"/>
<text text-anchor="middle" x="470.5" y="-254.89" font-family="Times,serif" font-size="14.00">&lt;</text>
</g>
<!-- n14&#45;&#45;n16 -->
<g id="edge16" class="edge">
<title>n14&#45;&#45;n16</title>
<path fill="none" stroke="black" d="M470.5,-318.94C470.5,-305.45 470.5,-288.97 470.5,-276.8"/>
</g>
<!-- n18 -->
<g id="node19" class="node">
<title>n18</title>
<polygon fill="none" stroke="black" points="664,-283.09 615,-283.09 615,-234.09 664,-234.09 664,-283.09"/>
<text text-anchor="middle" x="639.5" y="-254.89" font-family="Times,serif" font-size="14.00">Block</text>
</g>
<!-- n14&#45;&#45;n18 -->
<g id="edge35" class="edge">
<title>n14&#45;&#45;n18</title>
<path fill="none" stroke="black" d="M495.8,-330.59C527.94,-314.71 583.03,-287.49 614.85,-271.77"/>
</g>
<!-- n15 -->
<g id="node16" class="node">
<title>n15</title>
<ellipse fill="none" stroke="black" cx="410.5" cy="-174.04" rx="18" ry="18"/>
<text text-anchor="middle" x="410.5" y="-170.34" font-family="Times,serif" font-size="14.00">i</text>
</g>
<!-- n16&#45;&#45;n15 -->
<g id="edge14" class="edge">
<title>n16&#45;&#45;n15</title>
<path fill="none" stroke="black" d="M462.16,-246.11C451.34,-231.23 432.47,-205.27 420.78,-189.18"/>
</g>
<!-- n17 -->
<g id="node18" class="node">
<title>n17</title>
<ellipse fill="none" stroke="black" cx="470.5" cy="-174.04" rx="24.1" ry="24.1"/>
<text text-anchor="middle" x="470.5" y="-170.34" font-family="Times,serif" font-size="14.00">100</text>
</g>
<!-- n16&#45;&#45;n17 -->
<g id="edge15" class="edge">
<title>n16&#45;&#45;n17</title>
<path fill="none" stroke="black" d="M470.5,-240.48C470.5,-228.3 470.5,-211.78 470.5,-198.38"/>
</g>
<!-- n20 -->
<g id="node21" class="node">
<title>n20</title>
<polygon fill="none" stroke="black" points="539.5,-192.04 512.5,-174.04 539.5,-156.04 566.5,-174.04 539.5,-192.04"/>
<text text-anchor="middle" x="539.5" y="-170.34" font-family="Times,serif" font-size="14.00">=</text>
</g>
<!-- n18&#45;&#45;n20 -->
<g id="edge21" class="edge">
<title>n18&#45;&#45;n20</title>
<path fill="none" stroke="black" d="M614.78,-237.18C594.42,-220.38 566.47,-197.31 550.99,-184.53"/>
</g>
<!-- n24 -->
<g id="node25" class="node">
<title>n24</title>
<polygon fill="none" stroke="black" points="628,-195.54 585,-195.54 585,-152.54 628,-152.54 628,-195.54"/>
<text text-anchor="middle" x="606.5" y="-170.34" font-family="Times,serif" font-size="14.00">Print</text>
</g>
<!-- n18&#45;&#45;n24 -->
<g id="edge23" class="edge">
<title>n18&#45;&#45;n24</title>
<path fill="none" stroke="black" d="M629.95,-233.71C625.16,-221.71 619.4,-207.31 614.79,-195.78"/>
</g>
<!-- n27 -->
<g id="node28" class="node">
<title>n27</title>
<polygon fill="none" stroke="black" points="673.5,-192.04 646.5,-174.04 673.5,-156.04 700.5,-174.04 673.5,-192.04"/>
<text text-anchor="middle" x="673.5" y="-170.34" font-family="Times,serif" font-size="14.00">=</text>
</g>
<!-- n18&#45;&#45;n27 -->
<g id="edge26" class="edge">
<title>n18&#45;&#45;n27</title>
<path fill="none" stroke="black" d="M649.33,-233.71C655.37,-219.05 662.89,-200.79 667.92,-188.58"/>
</g>
<!-- n30 -->
<g id="node31" class="node">
<title>n30</title>
<polygon fill="none" stroke="black" points="774.5,-192.04 747.5,-174.04 774.5,-156.04 801.5,-174.04 774.5,-192.04"/>
<text text-anchor="middle" x="774.5" y="-170.34" font-family="Times,serif" font-size="14.00">=</text>
</g>
<!-- n18&#45;&#45;n30 -->
<g id="edge29" class="edge">
<title>n18&#45;&#45;n30</title>
<path fill="none" stroke="black" d="M664.26,-242.45C692.73,-225.04 738.43,-197.1 760.99,-183.3"/>
</g>
<!-- n33 -->
<g id="node34" class="node">
<title>n33</title>
<polygon fill="none" stroke="black" points="886.5,-192.04 859.5,-174.04 886.5,-156.04 913.5,-174.04 886.5,-192.04"/>
<text text-anchor="middle" x="886.5" y="-170.34" font-family="Times,serif" font-size="14.00">=</text>
</g>
<!-- n18&#45;&#45;n33 -->
<g id="edge34" class="edge">
<title>n18&#45;&#45;n33</title>
<path fill="none" stroke="black" d="M664.08,-249.37C714.11,-232.65 826.64,-195.05 869.49,-180.72"/>
</g>
<!-- n19 -->
<g id="node20" class="node">
<title>n19</title>
<ellipse fill="none" stroke="black" cx="475.5" cy="-94.49" rx="19.5" ry="19.5"/>
<text text-anchor="middle" x="475.5" y="-90.79" font-family="Times,serif" font-size="14.00">n3</text>
</g>
<!-- n20&#45;&#45;n19 -->
<g id="edge17" class="edge">
<title>n20&#45;&#45;n19</title>
<path fill="none" stroke="black" d="M530.33,-161.93C519.06,-148.28 499.91,-125.08 487.49,-110.02"/>
</g>
<!-- n22 -->
<g id="node23" class="node">
<title>n22</title>
<polygon fill="none" stroke="black" points="539.5,-112.49 512.5,-94.49 539.5,-76.49 566.5,-94.49 539.5,-112.49"/>
<text text-anchor="middle" x="539.5" y="-90.79" font-family="Times,serif" font-size="14.00">+</text>
</g>
<!-- n20&#45;&#45;n22 -->
<g id="edge20" class="edge">
<title>n20&#45;&#45;n22</title>
<path fill="none" stroke="black" d="M539.5,-155.83C539.5,-142.98 539.5,-125.5 539.5,-112.66"/>
</g>
<!-- n21 -->
<g id="node22" class="node">
<title>n21</title>
<ellipse fill="none" stroke="black" cx="511.5" cy="-19.5" rx="19.5" ry="19.5"/>
<text text-anchor="middle" x="511.5" y="-15.8" font-family="Times,serif" font-size="14.00">n2</text>
</g>
<!-- n22&#45;&#45;n21 -->
<g id="edge18" class="edge">
<title>n22&#45;&#45;n21</title>
<path fill="none" stroke="black" d="M534.23,-79.76C529.7,-67.95 523.14,-50.84 518.23,-38.04"/>
</g>
<!-- n23 -->
<g id="node24" class="node">
<title>n23</title>
<ellipse fill="none" stroke="black" cx="568.5" cy="-19.5" rx="19.5" ry="19.5"/>
<text text-anchor="middle" x="568.5" y="-15.8" font-family="Times,serif" font-size="14.00">n1</text>
</g>
<!-- n22&#45;&#45;n23 -->
<g id="edge19" class="edge">
<title>n22&#45;&#45;n23</title>
<path fill="none" stroke="black" d="M544.95,-79.76C549.68,-67.87 556.54,-50.6 561.63,-37.77"/>
</g>
<!-- n25 -->
<g id="node26" class="node">
<title>n25</title>
<ellipse fill="none" stroke="black" cx="603.5" cy="-94.49" rx="19.5" ry="19.5"/>
<text text-anchor="middle" x="603.5" y="-90.79" font-family="Times,serif" font-size="14.00">n3</text>
</g>
<!-- n24&#45;&#45;n25 -->
<g id="edge22" class="edge">
<title>n24&#45;&#45;n25</title>
<path fill="none" stroke="black" d="M605.69,-152.26C605.24,-140.42 604.67,-125.69 604.22,-114.21"/>
</g>
<!-- n26 -->
<g id="node27" class="node">
<title>n26</title>
<ellipse fill="none" stroke="black" cx="660.5" cy="-94.49" rx="19.5" ry="19.5"/>
<text text-anchor="middle" x="660.5" y="-90.79" font-family="Times,serif" font-size="14.00">n1</text>
</g>
<!-- n27&#45;&#45;n26 -->
<g id="edge24" class="edge">
<title>n27&#45;&#45;n26</title>
<path fill="none" stroke="black" d="M670.93,-157.72C668.81,-145.1 665.81,-127.16 663.56,-113.78"/>
</g>
<!-- n28 -->
<g id="node29" class="node">
<title>n28</title>
<ellipse fill="none" stroke="black" cx="717.5" cy="-94.49" rx="19.5" ry="19.5"/>
<text text-anchor="middle" x="717.5" y="-90.79" font-family="Times,serif" font-size="14.00">n2</text>
</g>
<!-- n27&#45;&#45;n28 -->
<g id="edge25" class="edge">
<title>n27&#45;&#45;n28</title>
<path fill="none" stroke="black" d="M680.57,-160.58C688.1,-147.31 700.05,-126.25 708.31,-111.7"/>
</g>
<!-- n29 -->
<g id="node30" class="node">
<title>n29</title>
<ellipse fill="none" stroke="black" cx="774.5" cy="-94.49" rx="19.5" ry="19.5"/>
<text text-anchor="middle" x="774.5" y="-90.79" font-family="Times,serif" font-size="14.00">n2</text>
</g>
<!-- n30&#45;&#45;n29 -->
<g id="edge27" class="edge">
<title>n30&#45;&#45;n29</title>
<path fill="none" stroke="black" d="M774.5,-155.83C774.5,-143.43 774.5,-126.7 774.5,-114.01"/>
</g>
<!-- n31 -->
<g id="node32" class="node">
<title>n31</title>
<ellipse fill="none" stroke="black" cx="831.5" cy="-94.49" rx="19.5" ry="19.5"/>
<text text-anchor="middle" x="831.5" y="-90.79" font-family="Times,serif" font-size="14.00">n3</text>
</g>
<!-- n30&#45;&#45;n31 -->
<g id="edge28" class="edge">
<title>n30&#45;&#45;n31</title>
<path fill="none" stroke="black" d="M782.91,-161.6C792.82,-148.12 809.32,-125.67 820.3,-110.72"/>
</g>
<!-- n32 -->
<g id="node33" class="node">
<title>n32</title>
<ellipse fill="none" stroke="black" cx="886.5" cy="-94.49" rx="18" ry="18"/>
<text text-anchor="middle" x="886.5" y="-90.79" font-family="Times,serif" font-size="14.00">i</text>
</g>
<!-- n33&#45;&#45;n32 -->
<g id="edge30" class="edge">
<title>n33&#45;&#45;n32</title>
<path fill="none" stroke="black" d="M886.5,-155.83C886.5,-142.98 886.5,-125.5 886.5,-112.66"/>
</g>
<!-- n35 -->
<g id="node36" class="node">
<title>n35</title>
<polygon fill="none" stroke="black" points="949.5,-112.49 922.5,-94.49 949.5,-76.49 976.5,-94.49 949.5,-112.49"/>
<text text-anchor="middle" x="949.5" y="-90.79" font-family="Times,serif" font-size="14.00">+</text>
</g>
<!-- n33&#45;&#45;n35 -->
<g id="edge33" class="edge">
<title>n33&#45;&#45;n35</title>
<path fill="none" stroke="black" d="M895.52,-161.93C907.5,-147.19 928.52,-121.32 940.49,-106.58"/>
</g>
<!-- n34 -->
<g id="node35" class="node">
<title>n34</title>
<ellipse fill="none" stroke="black" cx="922.5" cy="-19.5" rx="18" ry="18"/>
<text text-anchor="middle" x="922.5" y="-15.8" font-family="Times,serif" font-size="14.00">i</text>
</g>
<!-- n35&#45;&#45;n34 -->
<g id="edge31" class="edge">
<title>n35&#45;&#45;n34</title>
<path fill="none" stroke="black" d="M944.42,-79.76C939.9,-67.54 933.28,-49.64 928.5,-36.72"/>
</g>
<!-- n36 -->
<g id="node37" class="node">
<title>n36</title>
<ellipse fill="none" stroke="black" cx="976.5" cy="-19.5" rx="18" ry="18"/>
<text text-anchor="middle" x="976.5" y="-15.8" font-family="Times,serif" font-size="14.00">1</text>
</g>
<!-- n35&#45;&#45;n36 -->
<g id="edge32" class="edge">
<title>n35&#45;&#45;n36</title>
<path fill="none" stroke="black" d="M954.58,-79.76C959.1,-67.54 965.72,-49.64 970.5,-36.72"/>
</g>
</g>
</svg>
