<?xml version="1.0" encoding="UTF-8" standalone="no"?>
<!DOCTYPE svg PUBLIC "-//W3C//DTD SVG 1.1//EN"
 "http://www.w3.org/Graphics/SVG/1.1/DTD/svg11.dtd">
<!-- Generated by graphviz version 6.0.2 (20221011.1828)
 -->
<!-- Title: g Pages: 1 -->
<svg width="1228pt" height="469pt"
 viewBox="0.00 0.00 1228.50 469.09" xmlns="http://www.w3.org/2000/svg" xmlns:xlink="http://www.w3.org/1999/xlink">
<g id="graph0" class="graph" transform="scale(1 1) rotate(0) translate(4 465.09)">
<title>g</title>
<polygon fill="white" stroke="none" points="-4,4 -4,-465.09 1224.5,-465.09 1224.5,4 -4,4"/>
<!-- n0 -->
<g id="node1" class="node">
<title>n0</title>
<polygon fill="none" stroke="black" points="434,-461.09 385,-461.09 385,-412.09 434,-412.09 434,-461.09"/>
<text text-anchor="middle" x="409.5" y="-432.89" font-family="Times,serif" font-size="14.00">Block</text>
</g>
<!-- n1 -->
<g id="node2" class="node">
<title>n1</title>
<polygon fill="none" stroke="black" points="105,-376.09 48,-376.09 48,-319.09 105,-319.09 105,-376.09"/>
<text text-anchor="middle" x="76.5" y="-343.89" font-family="Times,serif" font-size="14.00">VarDec</text>
</g>
<!-- n0&#45;&#45;n1 -->
<g id="edge3" class="edge">
<title>n0&#45;&#45;n1</title>
<path fill="none" stroke="black" d="M384.79,-430.89C338.69,-421.91 236.61,-400.94 152.5,-376.09 136.62,-371.4 119.23,-365.19 105.1,-359.86"/>
</g>
<!-- n5 -->
<g id="node6" class="node">
<title>n5</title>
<polygon fill="none" stroke="black" points="188.5,-365.59 161.5,-347.59 188.5,-329.59 215.5,-347.59 188.5,-365.59"/>
<text text-anchor="middle" x="188.5" y="-343.89" font-family="Times,serif" font-size="14.00">=</text>
</g>
<!-- n0&#45;&#45;n5 -->
<g id="edge6" class="edge">
<title>n0&#45;&#45;n5</title>
<path fill="none" stroke="black" d="M384.75,-427.48C352.37,-416.69 294.06,-396.55 245.5,-376.09 230.92,-369.95 214.71,-362.01 203.31,-356.25"/>
</g>
<!-- n8 -->
<g id="node9" class="node">
<title>n8</title>
<polygon fill="none" stroke="black" points="281.5,-365.59 254.5,-347.59 281.5,-329.59 308.5,-347.59 281.5,-365.59"/>
<text text-anchor="middle" x="281.5" y="-343.89" font-family="Times,serif" font-size="14.00">=</text>
</g>
<!-- n0&#45;&#45;n8 -->
<g id="edge9" class="edge">
<title>n0&#45;&#45;n8</title>
<path fill="none" stroke="black" d="M384.94,-420.44C366.21,-408.71 339.9,-391.85 317.5,-376.09 309.27,-370.3 300.27,-363.42 293.32,-357.99"/>
</g>
<!-- n10 -->
<g id="node11" class="node">
<title>n10</title>
<polygon fill="none" stroke="black" points="370,-369.09 327,-369.09 327,-326.09 370,-326.09 370,-369.09"/>
<text text-anchor="middle" x="348.5" y="-343.89" font-family="Times,serif" font-size="14.00">Print</text>
</g>
<!-- n0&#45;&#45;n10 -->
<g id="edge11" class="edge">
<title>n0&#45;&#45;n10</title>
<path fill="none" stroke="black" d="M392.83,-411.82C383.52,-398.53 372.02,-382.14 363.07,-369.37"/>
</g>
<!-- n12 -->
<g id="node13" class="node">
<title>n12</title>
<polygon fill="none" stroke="black" points="431,-369.09 388,-369.09 388,-326.09 431,-326.09 431,-369.09"/>
<text text-anchor="middle" x="409.5" y="-343.89" font-family="Times,serif" font-size="14.00">Print</text>
</g>
<!-- n0&#45;&#45;n12 -->
<g id="edge13" class="edge">
<title>n0&#45;&#45;n12</title>
<path fill="none" stroke="black" d="M409.5,-411.82C409.5,-398.53 409.5,-382.14 409.5,-369.37"/>
</g>
<!-- n14 -->
<g id="node15" class="node">
<title>n14</title>
<polygon fill="none" stroke="black" points="506,-376.09 449,-376.09 449,-319.09 506,-319.09 506,-376.09"/>
<text text-anchor="middle" x="477.5" y="-343.89" font-family="Times,serif" font-size="14.00">VarDec</text>
</g>
<!-- n0&#45;&#45;n14 -->
<g id="edge15" class="edge">
<title>n0&#45;&#45;n14</title>
<path fill="none" stroke="black" d="M428.08,-411.82C436.65,-400.85 446.88,-387.76 455.81,-376.34"/>
</g>
<!-- n17 -->
<g id="node18" class="node">
<title>n17</title>
<polygon fill="none" stroke="black" points="551.5,-365.59 524.5,-347.59 551.5,-329.59 578.5,-347.59 551.5,-365.59"/>
<text text-anchor="middle" x="551.5" y="-343.89" font-family="Times,serif" font-size="14.00">=</text>
</g>
<!-- n0&#45;&#45;n17 -->
<g id="edge18" class="edge">
<title>n0&#45;&#45;n17</title>
<path fill="none" stroke="black" d="M434.19,-422.71C455.8,-411.19 487.81,-393.47 514.5,-376.09 523.22,-370.41 532.62,-363.41 539.77,-357.89"/>
</g>
<!-- n19 -->
<g id="node20" class="node">
<title>n19</title>
<polygon fill="none" stroke="black" points="654,-376.09 597,-376.09 597,-319.09 654,-319.09 654,-376.09"/>
<text text-anchor="middle" x="625.5" y="-343.89" font-family="Times,serif" font-size="14.00">VarDec</text>
</g>
<!-- n0&#45;&#45;n19 -->
<g id="edge20" class="edge">
<title>n0&#45;&#45;n19</title>
<path fill="none" stroke="black" d="M434.04,-429.91C469.26,-421.21 535.62,-402.74 587.5,-376.09 590.54,-374.53 593.61,-372.74 596.61,-370.83"/>
</g>
<!-- n21 -->
<g id="node22" class="node">
<title>n21</title>
<polygon fill="none" stroke="black" points="722.5,-372.59 672.5,-372.59 672.5,-322.59 722.5,-322.59 722.5,-372.59"/>
<text text-anchor="middle" x="697.5" y="-343.89" font-family="Times,serif" font-size="14.00">While</text>
</g>
<!-- n0&#45;&#45;n21 -->
<g id="edge43" class="edge">
<title>n0&#45;&#45;n21</title>
<path fill="none" stroke="black" d="M434.03,-433.37C480.61,-428.42 584.23,-413.75 662.5,-376.09 665.84,-374.48 669.16,-372.51 672.35,-370.37"/>
</g>
<!-- n2 -->
<g id="node3" class="node">
<title>n2</title>
<ellipse fill="none" stroke="black" cx="19.5" cy="-258.59" rx="19.5" ry="19.5"/>
<text text-anchor="middle" x="19.5" y="-254.89" font-family="Times,serif" font-size="14.00">n1</text>
</g>
<!-- n1&#45;&#45;n2 -->
<g id="edge1" class="edge">
<title>n1&#45;&#45;n2</title>
<path fill="none" stroke="black" d="M58.46,-319.06C49.07,-304.72 37.92,-287.7 29.95,-275.55"/>
</g>
<!-- n3 -->
<g id="node4" class="node">
<title>n3</title>
<ellipse fill="none" stroke="black" cx="76.5" cy="-258.59" rx="19.5" ry="19.5"/>
<text text-anchor="middle" x="76.5" y="-254.89" font-family="Times,serif" font-size="14.00">n2</text>
</g>
<!-- n1&#45;&#45;n3 -->
<g id="edge2" class="edge">
<title>n1&#45;&#45;n3</title>
<path fill="none" stroke="black" d="M76.5,-319.06C76.5,-305.72 76.5,-290.05 76.5,-278.15"/>
</g>
<!-- n4 -->
<g id="node5" class="node">
<title>n4</title>
<ellipse fill="none" stroke="black" cx="133.5" cy="-258.59" rx="19.5" ry="19.5"/>
<text text-anchor="middle" x="133.5" y="-254.89" font-family="Times,serif" font-size="14.00">n1</text>
</g>
<!-- n5&#45;&#45;n4 -->
<g id="edge4" class="edge">
<title>n5&#45;&#45;n4</title>
<path fill="none" stroke="black" d="M180.85,-334.49C171.11,-319.08 154.25,-292.42 143.5,-275.41"/>
</g>
<!-- n6 -->
<g id="node7" class="node">
<title>n6</title>
<ellipse fill="none" stroke="black" cx="188.5" cy="-258.59" rx="18" ry="18"/>
<text text-anchor="middle" x="188.5" y="-254.89" font-family="Times,serif" font-size="14.00">1</text>
</g>
<!-- n5&#45;&#45;n6 -->
<g id="edge5" class="edge">
<title>n5&#45;&#45;n6</title>
<path fill="none" stroke="black" d="M188.5,-329.4C188.5,-314.15 188.5,-291.98 188.5,-276.74"/>
</g>
<!-- n7 -->
<g id="node8" class="node">
<title>n7</title>
<ellipse fill="none" stroke="black" cx="243.5" cy="-258.59" rx="19.5" ry="19.5"/>
<text text-anchor="middle" x="243.5" y="-254.89" font-family="Times,serif" font-size="14.00">n2</text>
</g>
<!-- n8&#45;&#45;n7 -->
<g id="edge7" class="edge">
<title>n8&#45;&#45;n7</title>
<path fill="none" stroke="black" d="M275.73,-333.38C269.12,-318.26 258.29,-293.46 251.03,-276.83"/>
</g>
<!-- n9 -->
<g id="node10" class="node">
<title>n9</title>
<ellipse fill="none" stroke="black" cx="298.5" cy="-258.59" rx="18" ry="18"/>
<text text-anchor="middle" x="298.5" y="-254.89" font-family="Times,serif" font-size="14.00">1</text>
</g>
<!-- n8&#45;&#45;n9 -->
<g id="edge8" class="edge">
<title>n8&#45;&#45;n9</title>
<path fill="none" stroke="black" d="M284.46,-331.43C287.47,-316.05 292.11,-292.29 295.22,-276.35"/>
</g>
<!-- n11 -->
<g id="node12" class="node">
<title>n11</title>
<ellipse fill="none" stroke="black" cx="353.5" cy="-258.59" rx="19.5" ry="19.5"/>
<text text-anchor="middle" x="353.5" y="-254.89" font-family="Times,serif" font-size="14.00">n1</text>
</g>
<!-- n10&#45;&#45;n11 -->
<g id="edge10" class="edge">
<title>n10&#45;&#45;n11</title>
<path fill="none" stroke="black" d="M349.68,-325.97C350.51,-311.5 351.62,-292.3 352.42,-278.28"/>
</g>
<!-- n13 -->
<g id="node14" class="node">
<title>n13</title>
<ellipse fill="none" stroke="black" cx="410.5" cy="-258.59" rx="19.5" ry="19.5"/>
<text text-anchor="middle" x="410.5" y="-254.89" font-family="Times,serif" font-size="14.00">n2</text>
</g>
<!-- n12&#45;&#45;n13 -->
<g id="edge12" class="edge">
<title>n12&#45;&#45;n13</title>
<path fill="none" stroke="black" d="M409.74,-325.97C409.9,-311.5 410.12,-292.3 410.28,-278.28"/>
</g>
<!-- n15 -->
<g id="node16" class="node">
<title>n15</title>
<ellipse fill="none" stroke="black" cx="468.5" cy="-258.59" rx="18" ry="18"/>
<text text-anchor="middle" x="468.5" y="-254.89" font-family="Times,serif" font-size="14.00">i</text>
</g>
<!-- n14&#45;&#45;n15 -->
<g id="edge14" class="edge">
<title>n14&#45;&#45;n15</title>
<path fill="none" stroke="black" d="M474.65,-319.06C473.21,-305.12 471.5,-288.64 470.25,-276.57"/>
</g>
<!-- n16 -->
<g id="node17" class="node">
<title>n16</title>
<ellipse fill="none" stroke="black" cx="522.5" cy="-258.59" rx="18" ry="18"/>
<text text-anchor="middle" x="522.5" y="-254.89" font-family="Times,serif" font-size="14.00">i</text>
</g>
<!-- n17&#45;&#45;n16 -->
<g id="edge16" class="edge">
<title>n17&#45;&#45;n16</title>
<path fill="none" stroke="black" d="M546.84,-332.61C541.68,-317.14 533.39,-292.25 527.94,-275.9"/>
</g>
<!-- n18 -->
<g id="node19" class="node">
<title>n18</title>
<ellipse fill="none" stroke="black" cx="576.5" cy="-258.59" rx="18" ry="18"/>
<text text-anchor="middle" x="576.5" y="-254.89" font-family="Times,serif" font-size="14.00">0</text>
</g>
<!-- n17&#45;&#45;n18 -->
<g id="edge17" class="edge">
<title>n17&#45;&#45;n18</title>
<path fill="none" stroke="black" d="M555.63,-332.22C560.06,-316.78 567.11,-292.27 571.77,-276.06"/>
</g>
<!-- n20 -->
<g id="node21" class="node">
<title>n20</title>
<ellipse fill="none" stroke="black" cx="631.5" cy="-258.59" rx="19.5" ry="19.5"/>
<text text-anchor="middle" x="631.5" y="-254.89" font-family="Times,serif" font-size="14.00">n3</text>
</g>
<!-- n19&#45;&#45;n20 -->
<g id="edge19" class="edge">
<title>n19&#45;&#45;n20</title>
<path fill="none" stroke="black" d="M627.4,-319.06C628.32,-305.72 629.4,-290.05 630.22,-278.15"/>
</g>
<!-- n23 -->
<g id="node24" class="node">
<title>n23</title>
<polygon fill="none" stroke="black" points="696.5,-276.59 669.5,-258.59 696.5,-240.59 723.5,-258.59 696.5,-276.59"/>
<text text-anchor="middle" x="696.5" y="-254.89" font-family="Times,serif" font-size="14.00">&lt;</text>
</g>
<!-- n21&#45;&#45;n23 -->
<g id="edge23" class="edge">
<title>n21&#45;&#45;n23</title>
<path fill="none" stroke="black" d="M697.22,-322.35C697.05,-307.77 696.84,-289.57 696.69,-276.53"/>
</g>
<!-- n25 -->
<g id="node26" class="node">
<title>n25</title>
<polygon fill="none" stroke="black" points="890,-283.09 841,-283.09 841,-234.09 890,-234.09 890,-283.09"/>
<text text-anchor="middle" x="865.5" y="-254.89" font-family="Times,serif" font-size="14.00">Block</text>
</g>
<!-- n21&#45;&#45;n25 -->
<g id="edge42" class="edge">
<title>n21&#45;&#45;n25</title>
<path fill="none" stroke="black" d="M722.65,-333.56C754.6,-317.02 809.36,-288.66 841,-272.28"/>
</g>
<!-- n22 -->
<g id="node23" class="node">
<title>n22</title>
<ellipse fill="none" stroke="black" cx="636.5" cy="-174.04" rx="18" ry="18"/>
<text text-anchor="middle" x="636.5" y="-170.34" font-family="Times,serif" font-size="14.00">i</text>
</g>
<!-- n23&#45;&#45;n22 -->
<g id="edge21" class="edge">
<title>n23&#45;&#45;n22</title>
<path fill="none" stroke="black" d="M688.16,-246.11C677.34,-231.23 658.47,-205.27 646.78,-189.18"/>
</g>
<!-- n24 -->
<g id="node25" class="node">
<title>n24</title>
<ellipse fill="none" stroke="black" cx="696.5" cy="-174.04" rx="24.1" ry="24.1"/>
<text text-anchor="middle" x="696.5" y="-170.34" font-family="Times,serif" font-size="14.00">100</text>
</g>
<!-- n23&#45;&#45;n24 -->
<g id="edge22" class="edge">
<title>n23&#45;&#45;n24</title>
<path fill="none" stroke="black" d="M696.5,-240.48C696.5,-228.3 696.5,-211.78 696.5,-198.38"/>
</g>
<!-- n27 -->
<g id="node28" class="node">
<title>n27</title>
<polygon fill="none" stroke="black" points="765.5,-192.04 738.5,-174.04 765.5,-156.04 792.5,-174.04 765.5,-192.04"/>
<text text-anchor="middle" x="765.5" y="-170.34" font-family="Times,serif" font-size="14.00">=</text>
</g>
<!-- n25&#45;&#45;n27 -->
<g id="edge28" class="edge">
<title>n25&#45;&#45;n27</title>
<path fill="none" stroke="black" d="M840.78,-237.18C820.42,-220.38 792.47,-197.31 776.99,-184.53"/>
</g>
<!-- n31 -->
<g id="node32" class="node">
<title>n31</title>
<polygon fill="none" stroke="black" points="854,-195.54 811,-195.54 811,-152.54 854,-152.54 854,-195.54"/>
<text text-anchor="middle" x="832.5" y="-170.34" font-family="Times,serif" font-size="14.00">Print</text>
</g>
<!-- n25&#45;&#45;n31 -->
<g id="edge30" class="edge">
<title>n25&#45;&#45;n31</title>
<path fill="none" stroke="black" d="M855.95,-233.71C851.16,-221.71 845.4,-207.31 840.79,-195.78"/>
</g>
<!-- n34 -->
<g id="node35" class="node">
<title>n34</title>
<polygon fill="none" stroke="black" points="899.5,-192.04 872.5,-174.04 899.5,-156.04 926.5,-174.04 899.5,-192.04"/>
<text text-anchor="middle" x="899.5" y="-170.34" font-family="Times,serif" font-size="14.00">=</text>
</g>
<!-- n25&#45;&#45;n34 -->
<g id="edge33" class="edge">
<title>n25&#45;&#45;n34</title>
<path fill="none" stroke="black" d="M875.33,-233.71C881.37,-219.05 888.89,-200.79 893.92,-188.58"/>
</g>
<!-- n37 -->
<g id="node38" class="node">
<title>n37</title>
<polygon fill="none" stroke="black" points="1000.5,-192.04 973.5,-174.04 1000.5,-156.04 1027.5,-174.04 1000.5,-192.04"/>
<text text-anchor="middle" x="1000.5" y="-170.34" font-family="Times,serif" font-size="14.00">=</text>
</g>
<!-- n25&#45;&#45;n37 -->
<g id="edge36" class="edge">
<title>n25&#45;&#45;n37</title>
<path fill="none" stroke="black" d="M890.26,-242.45C918.73,-225.04 964.43,-197.1 986.99,-183.3"/>
</g>
<!-- n40 -->
<g id="node41" class="node">
<title>n40</title>
<polygon fill="none" stroke="black" points="1112.5,-192.04 1085.5,-174.04 1112.5,-156.04 1139.5,-174.04 1112.5,-192.04"/>
<text text-anchor="middle" x="1112.5" y="-170.34" font-family="Times,serif" font-size="14.00">=</text>
</g>
<!-- n25&#45;&#45;n40 -->
<g id="edge41" class="edge">
<title>n25&#45;&#45;n40</title>
<path fill="none" stroke="black" d="M890.08,-249.37C940.11,-232.65 1052.64,-195.05 1095.49,-180.72"/>
</g>
<!-- n26 -->
<g id="node27" class="node">
<title>n26</title>
<ellipse fill="none" stroke="black" cx="701.5" cy="-94.49" rx="19.5" ry="19.5"/>
<text text-anchor="middle" x="701.5" y="-90.79" font-family="Times,serif" font-size="14.00">n3</text>
</g>
<!-- n27&#45;&#45;n26 -->
<g id="edge24" class="edge">
<title>n27&#45;&#45;n26</title>
<path fill="none" stroke="black" d="M756.33,-161.93C745.06,-148.28 725.91,-125.08 713.49,-110.02"/>
</g>
<!-- n29 -->
<g id="node30" class="node">
<title>n29</title>
<polygon fill="none" stroke="black" points="765.5,-112.49 738.5,-94.49 765.5,-76.49 792.5,-94.49 765.5,-112.49"/>
<text text-anchor="middle" x="765.5" y="-90.79" font-family="Times,serif" font-size="14.00">+</text>
</g>
<!-- n27&#45;&#45;n29 -->
<g id="edge27" class="edge">
<title>n27&#45;&#45;n29</title>
<path fill="none" stroke="black" d="M765.5,-155.83C765.5,-142.98 765.5,-125.5 765.5,-112.66"/>
</g>
<!-- n28 -->
<g id="node29" class="node">
<title>n28</title>
<ellipse fill="none" stroke="black" cx="737.5" cy="-19.5" rx="19.5" ry="19.5"/>
<text text-anchor="middle" x="737.5" y="-15.8" font-family="Times,serif" font-size="14.00">n2</text>
</g>
<!-- n29&#45;&#45;n28 -->
<g id="edge25" class="edge">
<title>n29&#45;&#45;n28</title>
<path fill="none" stroke="black" d="M760.23,-79.76C755.7,-67.95 749.14,-50.84 744.23,-38.04"/>
</g>
<!-- n30 -->
<g id="node31" class="node">
<title>n30</title>
<ellipse fill="none" stroke="black" cx="794.5" cy="-19.5" rx="19.5" ry="19.5"/>
<text text-anchor="middle" x="794.5" y="-15.8" font-family="Times,serif" font-size="14.00">n1</text>
</g>
<!-- n29&#45;&#45;n30 -->
<g id="edge26" class="edge">
<title>n29&#45;&#45;n30</title>
<path fill="none" stroke="black" d="M770.95,-79.76C775.68,-67.87 782.54,-50.6 787.63,-37.77"/>
</g>
<!-- n32 -->
<g id="node33" class="node">
<title>n32</title>
<ellipse fill="none" stroke="black" cx="829.5" cy="-94.49" rx="19.5" ry="19.5"/>
<text text-anchor="middle" x="829.5" y="-90.79" font-family="Times,serif" font-size="14.00">n3</text>
</g>
<!-- n31&#45;&#45;n32 -->
<g id="edge29" class="edge">
<title>n31&#45;&#45;n32</title>
<path fill="none" stroke="black" d="M831.69,-152.26C831.24,-140.42 830.67,-125.69 830.22,-114.21"/>
</g>
<!-- n33 -->
<g id="node34" class="node">
<title>n33</title>
<ellipse fill="none" stroke="black" cx="886.5" cy="-94.49" rx="19.5" ry="19.5"/>
<text text-anchor="middle" x="886.5" y="-90.79" font-family="Times,serif" font-size="14.00">n1</text>
</g>
<!-- n34&#45;&#45;n33 -->
<g id="edge31" class="edge">
<title>n34&#45;&#45;n33</title>
<path fill="none" stroke="black" d="M896.93,-157.72C894.81,-145.1 891.81,-127.16 889.56,-113.78"/>
</g>
<!-- n35 -->
<g id="node36" class="node">
<title>n35</title>
<ellipse fill="none" stroke="black" cx="943.5" cy="-94.49" rx="19.5" ry="19.5"/>
<text text-anchor="middle" x="943.5" y="-90.79" font-family="Times,serif" font-size="14.00">n2</text>
</g>
<!-- n34&#45;&#45;n35 -->
<g id="edge32" class="edge">
<title>n34&#45;&#45;n35</title>
<path fill="none" stroke="black" d="M906.57,-160.58C914.1,-147.31 926.05,-126.25 934.31,-111.7"/>
</g>
<!-- n36 -->
<g id="node37" class="node">
<title>n36</title>
<ellipse fill="none" stroke="black" cx="1000.5" cy="-94.49" rx="19.5" ry="19.5"/>
<text text-anchor="middle" x="1000.5" y="-90.79" font-family="Times,serif" font-size="14.00">n2</text>
</g>
<!-- n37&#45;&#45;n36 -->
<g id="edge34" class="edge">
<title>n37&#45;&#45;n36</title>
<path fill="none" stroke="black" d="M1000.5,-155.83C1000.5,-143.43 1000.5,-126.7 1000.5,-114.01"/>
</g>
<!-- n38 -->
<g id="node39" class="node">
<title>n38</title>
<ellipse fill="none" stroke="black" cx="1057.5" cy="-94.49" rx="19.5" ry="19.5"/>
<text text-anchor="middle" x="1057.5" y="-90.79" font-family="Times,serif" font-size="14.00">n3</text>
</g>
<!-- n37&#45;&#45;n38 -->
<g id="edge35" class="edge">
<title>n37&#45;&#45;n38</title>
<path fill="none" stroke="black" d="M1008.91,-161.6C1018.82,-148.12 1035.32,-125.67 1046.3,-110.72"/>
</g>
<!-- n39 -->
<g id="node40" class="node">
<title>n39</title>
<ellipse fill="none" stroke="black" cx="1112.5" cy="-94.49" rx="18" ry="18"/>
<text text-anchor="middle" x="1112.5" y="-90.79" font-family="Times,serif" font-size="14.00">i</text>
</g>
<!-- n40&#45;&#45;n39 -->
<g id="edge37" class="edge">
<title>n40&#45;&#45;n39</title>
<path fill="none" stroke="black" d="M1112.5,-155.83C1112.5,-142.98 1112.5,-125.5 1112.5,-112.66"/>
</g>
<!-- n42 -->
<g id="node43" class="node">
<title>n42</title>
<polygon fill="none" stroke="black" points="1175.5,-112.49 1148.5,-94.49 1175.5,-76.49 1202.5,-94.49 1175.5,-112.49"/>
<text text-anchor="middle" x="1175.5" y="-90.79" font-family="Times,serif" font-size="14.00">+</text>
</g>
<!-- n40&#45;&#45;n42 -->
<g id="edge40" class="edge">
<title>n40&#45;&#45;n42</title>
<path fill="none" stroke="black" d="M1121.52,-161.93C1133.5,-147.19 1154.52,-121.32 1166.49,-106.58"/>
</g>
<!-- n41 -->
<g id="node42" class="node">
<title>n41</title>
<ellipse fill="none" stroke="black" cx="1148.5" cy="-19.5" rx="18" ry="18"/>
<text text-anchor="middle" x="1148.5" y="-15.8" font-family="Times,serif" font-size="14.00">i</text>
</g>
<!-- n42&#45;&#45;n41 -->
<g id="edge38" class="edge">
<title>n42&#45;&#45;n41</title>
<path fill="none" stroke="black" d="M1170.42,-79.76C1165.9,-67.54 1159.28,-49.64 1154.5,-36.72"/>
</g>
<!-- n43 -->
<g id="node44" class="node">
<title>n43</title>
<ellipse fill="none" stroke="black" cx="1202.5" cy="-19.5" rx="18" ry="18"/>
<text text-anchor="middle" x="1202.5" y="-15.8" font-family="Times,serif" font-size="14.00">1</text>
</g>
<!-- n42&#45;&#45;n43 -->
<g id="edge39" class="edge">
<title>n42&#45;&#45;n43</title>
<path fill="none" stroke="black" d="M1180.58,-79.76C1185.1,-67.54 1191.72,-49.64 1196.5,-36.72"/>
</g>
</g>
</svg>
